# xmcd CD database file
#
# Track frame offsets:
#	150
#	17365
#	36298
#
# Disc length: 711 seconds
#
# Revision: 3
# Processed by: cddbd v1.5.2PL0 Copyright (c) Steve Scherf et al.
# Submitted via: CDex 1.70beta2
#
DISCID=1702c503
DTITLE=SEGA 小林秀聡 - ファンタシースターポータブル2 スペシャルシングルCD
DYEAR=2009
DGENRE=Game
TTITLE0=メインテーマ「Living Universe」ロングバージョン
TTITLE1=Entrance Universe -Living Universe REMIX-
TTITLE2=メインテーマ「Living Universe」インストゥルメンタル
EXTD=YEAR: 2009
EXTT0=
EXTT1=
EXTT2=
PLAYORDER=
